Coordinates
version=1
nRows=29
nColumns=24
inDegrees=yes

Units are S.I. units (second, meters, Newtons, ...)
Angles are in degrees.

endheader
time	pelvis_tilt	pelvis_list	pelvis_rotation	pelvis_tx	pelvis_ty	pelvis_tz	hip_flexion_r	hip_adduction_r	hip_rotation_r	knee_angle_r	ankle_angle_r	subtalar_angle_r	mtp_angle_r	hip_flexion_l	hip_adduction_l	hip_rotation_l	knee_angle_l	ankle_angle_l	subtalar_angle_l	mtp_angle_l	lumbar_extension	lumbar_bending	lumbar_rotation
      0.00000000	     -2.42672653	    -51.30615158	    -84.79912727	      0.23299221	      1.03119372	      0.36366217	     19.73548963	     -7.45166309	    -19.34107312	    -82.22204926	      1.29236577	      0.12987562	      0.00000000	     30.05435638	     -3.26633823	      0.77674951	    -70.03420616	    -10.36423158	      5.70386360	      0.00000000	    -54.28004742	      7.42888630	     -9.90254556
      0.00833333	     -2.42672653	    -51.30615158	    -84.79912727	      0.23299221	      1.03119372	      0.36366217	     19.73548963	     -7.45166309	    -19.34107312	    -82.22204926	      1.29236577	      0.12987562	      0.00000000	     30.05435638	     -3.26633823	      0.77674951	    -70.03420616	    -10.36423158	      5.70386360	      0.00000000	    -54.28004742	      7.42888630	     -9.90254556
      0.01666667	     -2.42672653	    -51.30615158	    -84.79912727	      0.23299221	      1.03119372	      0.36366217	     19.73548963	     -7.45166309	    -19.34107312	    -82.22204926	      1.29236577	      0.12987562	      0.00000000	     30.05435638	     -3.26633823	      0.77674951	    -70.03420616	    -10.36423158	      5.70386360	      0.00000000	    -54.28004742	      7.42888630	     -9.90254556
      0.02500000	     -2.42672653	    -51.30615158	    -84.79912727	      0.23299221	      1.03119372	      0.36366217	     19.73548963	     -7.45166309	    -19.34107312	    -82.22204926	      1.29236577	      0.12987562	      0.00000000	     30.05435638	     -3.26633823	      0.77674951	    -70.03420616	    -10.36423158	      5.70386360	      0.00000000	    -54.28004742	      7.42888630	     -9.90254556
      0.03333333	     -2.42672653	    -51.30615158	    -84.79912727	      0.23299221	      1.03119372	      0.36366217	     19.73548963	     -7.45166309	    -19.34107312	    -82.22204926	      1.29236577	      0.12987562	      0.00000000	     30.05435638	     -3.26633823	      0.77674951	    -70.03420616	    -10.36423158	      5.70386360	      0.00000000	    -54.28004742	      7.42888630	     -9.90254556
      0.04166667	     -2.42672653	    -51.30615158	    -84.79912727	      0.23299221	      1.03119372	      0.36366217	     19.73548963	     -7.45166309	    -19.34107312	    -82.22204926	      1.29236577	      0.12987562	      0.00000000	     30.05435638	     -3.26633823	      0.77674951	    -70.03420616	    -10.36423158	      5.70386360	      0.00000000	    -54.28004742	      7.42888630	     -9.90254556
      0.05000000	     -2.42669112	    -51.30612711	    -84.79913686	      0.23299339	      1.03119329	      0.36366128	     19.73549567	     -7.45163715	    -19.34109519	    -82.22205067	      1.29236591	      0.12987562	      0.00000000	     30.05433016	     -3.26634716	      0.77675266	    -70.03422257	    -10.36423179	      5.70386146	      0.00000000	    -54.28004293	      7.42888518	     -9.90254579
      0.05833333	     -2.42675716	    -51.30617526	    -84.79912346	      0.23299069	      1.03119410	      0.36366251	     19.73548656	     -7.45166722	    -19.34107005	    -82.22205531	      1.29236589	      0.12987521	      0.00000000	     30.05437130	     -3.26630396	      0.77673020	    -70.03419736	    -10.36423190	      5.70386729	      0.00000000	    -54.28004288	      7.42889180	     -9.90254483
      0.06666667	     -2.42663401	    -51.30615702	    -84.79914181	      0.23299494	      1.03119308	      0.36366167	     19.73552865	     -7.45163361	    -19.34110615	    -82.22202921	      1.29236694	      0.12987515	      0.00000000	     30.05432475	     -3.26640273	      0.77678264	    -70.03422572	    -10.36422725	      5.70385123	      0.00000000	    -54.28003755	      7.42888460	     -9.90254632
      0.07500000	     -2.42713936	    -51.30615370	    -84.79940082	      0.23299375	      1.03119348	      0.36366174	     19.73480892	     -7.45128629	    -19.34110729	    -82.22270908	      1.29234016	      0.12990386	      0.00000000	     30.05482808	     -3.26520247	      0.77614885	    -70.03388758	    -10.36437543	      5.70425375	      0.00000000	    -54.28000046	      7.42898366	     -9.90251958
      0.08333333	     -2.42620752	    -51.30629038	    -84.79866031	      0.23299039	      1.03119377	      0.36366235	     19.73642608	     -7.45243403	    -19.34075073	    -82.22136244	      1.29241140	      0.12985854	      0.00000000	     30.05370129	     -3.26796866	      0.77763694	    -70.03455844	    -10.36416391	      5.70366723	      0.00000000	    -54.28002415	      7.42903458	     -9.90252862
      0.09166667	     -2.42717513	    -51.30597270	    -84.79965207	      0.23299604	      1.03119367	      0.36366123	     19.73465376	     -7.45053301	    -19.34170745	    -82.22293945	      1.29233369	      0.12989709	      0.00000000	     30.05482903	     -3.26424981	      0.77559170	    -70.03392495	    -10.36438143	      5.70429131	      0.00000000	    -54.28002826	      7.42882090	     -9.90254967
      0.10000000	     -2.41805301	    -51.30084985	    -84.77705869	      0.23305950	      1.03117940	      0.36368411	     19.73326268	     -7.47773244	    -19.34404272	    -82.23865849	      1.29893702	      0.18640890	      0.00000000	     30.08147011	     -3.24682415	      0.78644268	    -69.97293566	    -10.38497889	      6.05814693	      0.00000000	    -54.27100325	      7.44067052	     -9.91517358
      0.10833333	     -2.42974851	    -51.29609430	    -84.79206310	      0.23301599	      1.03118034	      0.36370292	     19.73687279	     -7.47208499	    -19.35184200	    -82.23215569	      1.29740663	      0.18132543	      0.00000000	     30.11843090	     -3.26445574	      0.81187477	    -69.84205265	    -10.38562561	      6.05182327	      0.00000000	    -54.26498630	      7.43574196	     -9.91056274
      0.11666667	     -2.48837162	    -51.28870341	    -84.83650635	      0.23296526	      1.03116604	      0.36373609	     19.73954589	     -7.42776128	    -19.38698570	    -82.23411361	      1.31473481	      0.08675946	      0.00000000	     30.17055971	     -3.31660403	      0.85946910	    -69.72439722	    -10.40598023	      5.79925564	      0.00000000	    -54.25350457	      7.45680070	     -9.88697850
      0.12500000	     -2.53174122	    -51.27818323	    -84.86118493	      0.23298108	      1.03112805	      0.36375102	     19.74849748	     -7.40799951	    -19.39053163	    -82.24964243	      1.33410316	      0.05671345	      0.00000000	     30.22703189	     -3.34133155	      0.92283755	    -69.61831100	    -10.39919820	      5.57715005	      0.00000000	    -54.24317046	      7.48738193	     -9.88104989
      0.13333333	     -2.57616604	    -51.25689043	    -84.88975586	      0.23298166	      1.03106954	      0.36378627	     19.77573934	     -7.38466822	    -19.35871722	    -82.26232801	      1.33131049	      0.09130552	      0.00000000	     30.30172934	     -3.37961910	      0.98243501	    -69.52548006	    -10.38380350	      5.27471561	      0.00000000	    -54.21871124	      7.51305770	     -9.86838829
      0.14166667	     -2.61042201	    -51.22688410	    -84.90730867	      0.23297320	      1.03100320	      0.36385187	     19.80718661	     -7.36190057	    -19.28270183	    -82.28531522	      1.35760625	      0.18550647	      0.00000000	     30.38886094	     -3.41714357	      1.04409762	    -69.44304105	    -10.37179712	      4.96636184	      0.00000000	    -54.18112664	      7.53331685	     -9.85817956
      0.15000000	     -2.63201238	    -51.17043710	    -84.89646117	      0.23303398	      1.03084912	      0.36393043	     19.86983494	     -7.36525248	    -19.24677382	    -82.31383617	      1.35312087	      0.22234790	      0.00000000	     30.51113998	     -3.42948801	      1.12685905	    -69.35250455	    -10.41959952	      4.57270093	      0.00000000	    -54.11843700	      7.56848180	     -9.87667033
      0.15833333	     -2.68132825	    -51.13254141	    -84.90561942	      0.23307952	      1.03074041	      0.36398779	     19.90422966	     -7.35460524	    -19.26855363	    -82.32264321	      1.31442313	      0.19588763	      0.00000000	     30.60141637	     -3.45992678	      1.23211315	    -69.25736047	    -10.40434168	      4.21339112	      0.00000000	    -54.07492393	      7.61501973	     -9.87539093
      0.16666667	     -2.71153043	    -51.11773125	    -84.92549908	      0.23306392	      1.03071005	      0.36400984	     19.91461096	     -7.34657496	    -19.22866776	    -82.33815473	      1.33113438	      0.21611829	      0.00000000	     30.64391846	     -3.49267841	      1.31672735	    -69.15224356	    -10.32191767	      3.93897139	      0.00000000	    -54.05475859	      7.62937663	     -9.86689370
      0.17500000	     -2.73478214	    -51.09617361	    -84.93430986	      0.23307291	      1.03064782	      0.36399355	     19.93342940	     -7.33837358	    -19.21003850	    -82.33764044	      1.37501221	      0.16313544	      0.00000000	     30.68420568	     -3.50758577	      1.41554982	    -69.02147887	    -10.33723618	      3.58448692	      0.00000000	    -54.03323099	      7.64982912	     -9.87091239
      0.18333333	     -2.75263832	    -51.07717804	    -84.92705116	      0.23311691	      1.03058113	      0.36401353	     19.95011124	     -7.34683855	    -19.23691116	    -82.34273061	      1.38624643	      0.05488431	      0.00000000	     30.71670193	     -3.51435282	      1.52847358	    -68.88412008	    -10.34202917	      3.27090466	      0.00000000	    -54.01109010	      7.68271737	     -9.88279768
      0.19166667	     -2.77983409	    -51.06265534	    -84.92720949	      0.23318492	      1.03054760	      0.36405283	     19.95251938	     -7.35302550	    -19.24270658	    -82.34242413	      1.35797695	      0.01873777	      0.00000000	     30.74824345	     -3.53536466	      1.64271620	    -68.74581355	    -10.36470952	      2.98664903	      0.00000000	    -53.98808845	      7.71626534	     -9.88555735
      0.20000000	     -2.82016134	    -51.03748669	    -84.93195240	      0.23324253	      1.03047347	      0.36409913	     19.96655008	     -7.34520898	    -19.21653795	    -82.34744029	      1.34525704	      0.07076687	      0.00000000	     30.79983569	     -3.57300001	      1.75356547	    -68.61032326	    -10.43036416	      2.74846854	      0.00000000	    -53.95698420	      7.75307102	     -9.87801366
      0.20833333	     -2.84040370	    -50.99646914	    -84.93230616	      0.23326557	      1.03035300	      0.36416734	     20.01445633	     -7.35193569	    -19.13487388	    -82.38652892	      1.37977944	      0.19577009	      0.00000000	     30.86389149	     -3.59930359	      1.85255314	    -68.47463131	    -10.45763167	      2.55586707	      0.00000000	    -53.90918192	      7.77288310	     -9.88181082
      0.21666667	     -2.83543830	    -50.96206919	    -84.92455942	      0.23330294	      1.03025902	      0.36424232	     20.05341894	     -7.37595128	    -19.08757632	    -82.42057822	      1.41527643	      0.19348260	      0.00000000	     30.90426564	     -3.60929562	      1.93738564	    -68.31273760	    -10.54188230	      2.37327543	      0.00000000	    -53.86304600	      7.77760312	     -9.89537767
      0.22500000	     -2.85005607	    -50.93401511	    -84.93061772	      0.23333027	      1.03020357	      0.36429868	     20.07784127	     -7.38849296	    -19.07044777	    -82.43237319	      1.41331289	      0.17934298	      0.00000000	     30.93052195	     -3.63609499	      2.02103930	    -68.13187567	    -10.62082973	      2.21551644	      0.00000000	    -53.82809651	      7.79348685	     -9.89353452
      0.23333333	     -2.88536703	    -50.91761374	    -84.93215366	      0.23342965	      1.03011236	      0.36435036	     20.09119543	     -7.40639908	    -19.07743766	    -82.45599475	      1.45694841	      0.20480288	      0.00000000	     30.95874131	     -3.65188828	      2.14849357	    -67.96829372	    -10.62776789	      2.08264317	      0.00000000	    -53.79792090	      7.84287301	     -9.90357769
